<svg width="16" height="25" viewBox="0 0 16 25" fill="none" xmlns="http://www.w3.org/2000/svg">
<path d="M4.83948 23.0105L4.79264 10.9416C5.58152 10.7239 6.27686 10.2527 6.77137 9.60058C7.26588 8.9485 7.53208 8.15182 7.5289 7.33345C7.52573 6.51508 7.25335 5.72049 6.75379 5.07227C6.25424 4.42405 5.55527 3.95822 4.76471 3.74665L4.75409 1.01067C4.75306 0.745458 4.64672 0.491514 4.45846 0.304707C4.2702 0.1179 4.01544 0.0135313 3.75022 0.0145606C3.48501 0.0155899 3.23107 0.121933 3.04426 0.310196C2.85745 0.498459 2.75309 0.75322 2.75412 1.01843L2.76473 3.75441C1.97584 3.97211 1.28051 4.44335 0.786 5.09543C0.291492 5.74751 0.0252913 6.54419 0.0284675 7.36256C0.0316436 8.18093 0.30402 8.97552 0.803575 9.62374C1.30313 10.272 2.0021 10.7378 2.79266 10.9494L2.8395 23.0183C2.84053 23.2835 2.94687 23.5374 3.13513 23.7242C3.32339 23.911 3.57815 24.0154 3.84337 24.0144C4.10858 24.0134 4.36252 23.907 4.54933 23.7187C4.73614 23.5305 4.8405 23.2757 4.83948 23.0105ZM2.0287 7.3543C2.02736 7.00818 2.12868 6.66944 2.31985 6.38091C2.51103 6.09238 2.78347 5.86702 3.10272 5.73333C3.42197 5.59963 3.7737 5.56361 4.11343 5.62982C4.45315 5.69603 4.76561 5.86149 5.0113 6.10528C5.25699 6.34907 5.42487 6.66024 5.49371 6.99944C5.56255 7.33864 5.52926 7.69064 5.39805 8.01092C5.26684 8.3312 5.0436 8.60539 4.75657 8.79879C4.46953 8.9922 4.13159 9.09615 3.78547 9.09749C3.32159 9.0985 2.87622 8.9156 2.54693 8.58886C2.21765 8.26211 2.0313 7.81818 2.0287 7.3543Z" fill="#4A4A4A"/>
<path d="M12.8385 23.0105L12.8279 20.2745C13.617 20.0572 14.3125 19.5861 14.8073 18.9341C15.302 18.2821 15.5683 17.4853 15.5651 16.6669C15.5619 15.8484 15.2894 15.0538 14.7897 14.4056C14.2899 13.7574 13.5907 13.2918 12.8 13.0806L12.7531 1.01067C12.7521 0.745454 12.6457 0.491511 12.4575 0.304704C12.2692 0.117896 12.0145 0.0135275 11.7492 0.0145568C11.484 0.0155861 11.2301 0.121929 11.0433 0.310192C10.8565 0.498455 10.7521 0.753216 10.7531 1.01843L10.8 13.0883C10.0109 13.3057 9.31531 13.7767 8.82059 14.4288C8.32588 15.0808 8.05955 15.8775 8.06273 16.696C8.0659 17.5144 8.33841 18.3091 8.83817 18.9573C9.33793 19.6054 10.0372 20.0711 10.8279 20.2823L10.8385 23.0183C10.8395 23.2835 10.9459 23.5374 11.1341 23.7242C11.3224 23.911 11.5772 24.0154 11.8424 24.0144C12.1076 24.0133 12.3615 23.907 12.5483 23.7187C12.7352 23.5305 12.8395 23.2757 12.8385 23.0105ZM10.0639 16.6882C10.0626 16.3421 10.1639 16.0034 10.3551 15.7148C10.5463 15.4263 10.8187 15.2009 11.138 15.0673C11.4572 14.9336 11.8089 14.8975 12.1487 14.9637C12.4884 15.03 12.8009 15.1954 13.0465 15.4392C13.2922 15.683 13.4601 15.9942 13.529 16.3334C13.5978 16.6726 13.5645 17.0246 13.4333 17.3448C13.3021 17.6651 13.0788 17.9393 12.7918 18.1327C12.5048 18.3261 12.1668 18.4301 11.8207 18.4314C11.3568 18.4327 10.9112 18.2499 10.5819 17.9231C10.2525 17.5963 10.0663 17.1522 10.0639 16.6882Z" fill="#4A4A4A"/>
</svg>
